<?xml version="1.0" encoding="iso-8859-1"?>
<!-- Generator: Adobe Illustrator 19.0.0, SVG Export Plug-In . SVG Version: 6.00 Build 0)  -->
<svg version="1.1" id="Capa_1" xmlns="http://www.w3.org/2000/svg" xmlns:xlink="http://www.w3.org/1999/xlink" x="0px" y="0px"
	 viewBox="0 0 298 298" style="enable-background:new 0 0 298 298;" xml:space="preserve">
<g>
	<rect x="217" y="46.5" width="35" height="34"/>
	<rect x="149" y="46.5" width="35" height="34"/>
	<rect x="83" y="46.5" width="33" height="34"/>
	<rect x="184" y="80.5" width="33" height="35"/>
	<rect x="116" y="80.5" width="33" height="35"/>
	<rect x="47" y="80.5" width="36" height="35"/>
	<rect x="217" y="115.5" width="35" height="33"/>
	<rect x="149" y="115.5" width="35" height="33"/>
	<rect x="83" y="115.5" width="33" height="33"/>
	<rect x="184" y="148.5" width="33" height="33"/>
	<rect x="116" y="148.5" width="33" height="33"/>
	<rect x="47" y="148.5" width="36" height="33"/>
	<rect x="217" y="181.5" width="35" height="35"/>
	<rect x="149" y="181.5" width="35" height="35"/>
	<rect x="83" y="181.5" width="33" height="35"/>
	<rect x="184" y="216.5" width="33" height="34"/>
	<rect x="116" y="216.5" width="33" height="34"/>
	<rect x="47" y="216.5" width="36" height="34"/>
	<path d="M282.291,0.5h-31.656h-34.534h-32.233h-34.534h-33.384H83.717H49.182H16.374H0v16.192V48.35v33.383v33.384V148.5v33.384
		v33.384v33.383v32.809V297.5h16.374h32.808h34.535h32.232h33.384h34.534h32.233h34.534h31.656H298v-16.041V248.65v-33.383v-33.384
		V148.5v-33.384V81.732V48.35V16.692V0.5H282.291z M282,48.35V80.5h-30v35h30v33h-30v33h30v0.384v33.384v1.232h-30v34h30v31h-30v-31
		h-35v31h-0.899H184v-31h-35v31h-33v-31H83v31H49.182H47v-31H16v-1.85V216.5h31v-35H16v-33h31v-33H16v-0.384V81.732V80.5h31v-34H16
		v-30h31v30h36v-30h0.717h32.232H116v30h33v-30h34.867H184v30h33v-30h33.635H252v30h30V48.35z"/>
</g>
<g>
</g>
<g>
</g>
<g>
</g>
<g>
</g>
<g>
</g>
<g>
</g>
<g>
</g>
<g>
</g>
<g>
</g>
<g>
</g>
<g>
</g>
<g>
</g>
<g>
</g>
<g>
</g>
<g>
</g>
</svg>
