<?xml version="1.0" encoding="iso-8859-1"?>
<!-- Generator: Adobe Illustrator 19.0.0, SVG Export Plug-In . SVG Version: 6.00 Build 0)  -->
<svg version="1.1" id="Capa_1" xmlns="http://www.w3.org/2000/svg" xmlns:xlink="http://www.w3.org/1999/xlink" x="0px" y="0px"
	 viewBox="0 0 296 296" style="enable-background:new 0 0 296 296;" xml:space="preserve">
<g>
	<path d="M295.99,184.969h0.004l-30.544-93H249V68.031l-83.869,18.908c-2.634-6.215-8.707-10.574-15.882-10.574
		c-7.175,0-13.455,4.359-16.09,10.574L49,68.031v23.938H33.216l-32.521,93h0.004L0,185.559v42.41h149.333H296v-42.41L295.99,184.969
		z M69,214.969H17v-16h52V214.969z M140,214.969H88v-16h52V214.969z M141,169.969H23.279l21.271-61H141V169.969z M157,108.969
		h96.884l19.977,61H157V108.969z M210,214.969h-52v-16h52V214.969z M281,214.969h-52v-16h52V214.969z"/>
</g>
<g>
</g>
<g>
</g>
<g>
</g>
<g>
</g>
<g>
</g>
<g>
</g>
<g>
</g>
<g>
</g>
<g>
</g>
<g>
</g>
<g>
</g>
<g>
</g>
<g>
</g>
<g>
</g>
<g>
</g>
</svg>
