<?xml version="1.0" encoding="iso-8859-1"?>
<!-- Generator: Adobe Illustrator 19.0.0, SVG Export Plug-In . SVG Version: 6.00 Build 0)  -->
<svg version="1.1" id="Capa_1" xmlns="http://www.w3.org/2000/svg" xmlns:xlink="http://www.w3.org/1999/xlink" x="0px" y="0px"
	 viewBox="0 0 296 296" style="enable-background:new 0 0 296 296;" xml:space="preserve">
<g>
	<path d="M215.5,67V40h17V24h-50v16h17v27h-99V16h18V0h-52v16h18v51h-51v229h229V67H215.5z M148.834,279.5
		c-54.125,0-98-43.877-98-98s43.875-98,98-98c54.123,0,97.998,43.877,97.998,98S202.957,279.5,148.834,279.5z"/>
	<path d="M203.25,115.603l-50.831,50.831c-1.153-0.273-2.35-0.434-3.586-0.434c-1.094,0-2.16,0.116-3.19,0.332l-25.311-25.312
		l-11.314,11.314l24.918,24.918c-0.385,1.352-0.604,2.773-0.604,4.248c0,8.561,6.939,15.5,15.5,15.5c8.56,0,15.5-6.939,15.5-15.5
		c0-1.332-0.186-2.618-0.502-3.852l50.732-50.732L203.25,115.603z"/>
	<circle cx="150.333" cy="107.5" r="8"/>
	<circle cx="76.166" cy="181.5" r="8"/>
	<circle cx="150.333" cy="254" r="8"/>
	<circle cx="222.666" cy="181.667" r="8"/>
</g>
<g>
</g>
<g>
</g>
<g>
</g>
<g>
</g>
<g>
</g>
<g>
</g>
<g>
</g>
<g>
</g>
<g>
</g>
<g>
</g>
<g>
</g>
<g>
</g>
<g>
</g>
<g>
</g>
<g>
</g>
</svg>
