<svg width="128" height="128" viewBox="0 0 128 128" fill="none" xmlns="http://www.w3.org/2000/svg">
<path d="M89.1334 109.904H87.6641C88.6181 108.466 91.2489 103.641 87.3574 98.8738C83.5227 94.1753 76.5268 81.835 76.8237 71.1264H78.3619C80.2654 71.1264 81.6653 69.5831 81.6653 67.6796V67.2487C81.6653 65.3452 80.2654 63.8018 78.3619 63.8018H76.4949V61.9556C82.0961 58.0903 85.3323 51.8295 85.3323 44.7582C85.3323 40.3066 82.3116 33.5084 78.5165 26.7823L70.5228 34.7941C69.1824 36.1345 66.9975 36.1345 65.6567 34.7946L65.2598 34.3926C63.9194 33.0526 63.9216 30.8587 65.262 29.5182L74.6013 20.1798C72.6866 17.134 70.78 14.2865 69.1281 11.8969C70.3694 10.6345 71.1372 8.90502 71.1372 6.99416C71.1376 3.13149 68.0074 0 64.1439 0C60.2804 0 57.1493 3.13149 57.1493 6.99416C57.1493 8.90459 57.9167 10.6341 59.158 11.8969C52.8739 20.9885 42.8111 36.7089 42.8111 44.7582C42.8111 52.0195 46.3347 58.4268 51.9359 62.2619V63.8018H49.9251C48.0215 63.8018 46.3347 65.3452 46.3347 67.2487V67.6796C46.3347 69.5831 48.0215 71.1264 49.9251 71.1264H51.4637C51.7605 81.8355 44.7651 94.1753 40.93 98.8738C37.0389 103.641 39.6693 108.466 40.6232 109.904H39.1536C37.25 109.904 35.5632 111.447 35.5632 113.351V117.228C35.5632 118.986 36.8558 120.433 38.5792 120.646V128H89.4208V120.646C91.1442 120.433 92.4368 118.986 92.4368 117.228V113.351C92.4368 111.447 91.0369 109.904 89.1334 109.904Z" fill="black"/>
</svg>
