<svg width="128" height="128" viewBox="0 0 128 128" fill="none" xmlns="http://www.w3.org/2000/svg">
<path d="M84.7605 109.96H84.0556C84.8623 108.526 87.0885 103.716 83.7958 98.9638C80.5511 94.2797 74.5647 81.9771 74.8169 71.3016C76.7107 71.2973 78.1741 69.7609 78.1741 67.8658V67.4362C78.1741 65.5386 76.6355 64 74.7378 64C76.6355 64 78.1741 62.4614 78.1741 60.5638V60.1342C78.1741 58.2366 76.7785 56.698 74.8809 56.698H73.356C72.9239 49.7645 73.9174 43.8718 75.4169 39.2058C75.8984 37.708 76.4615 36.5487 77.0285 35.651H77.8876C79.7852 35.651 81.1808 34.1124 81.1808 32.2148V31.7852C81.1808 29.9198 79.6933 28.4048 77.8403 28.3541C76.9233 22.6667 72.5906 18.1275 67.0067 16.9076V11.5973H72.1611V5.15436H67.0067V0H60.5638V5.15436H55.4094V11.5973H60.5638V17.0072C55.4094 18.3603 51.1987 22.8111 50.3031 28.349H49.9685C48.0709 28.349 46.3893 29.8876 46.3893 31.7852V32.2148C46.3893 34.1124 48.0709 35.651 49.9685 35.651H51.2571C51.8241 36.5492 52.3872 37.708 52.8687 39.2058C54.3682 43.8714 55.3617 49.7645 54.9296 56.698H52.9753C51.0776 56.698 49.396 58.2366 49.396 60.1342V60.5638C49.396 62.4614 50.9346 64 52.8322 64C50.9346 64 49.396 65.5386 49.396 67.4362V67.8658C49.396 69.7634 51.0776 71.302 52.9753 71.302H53.4276C53.6801 81.978 47.7651 94.2797 44.5204 98.9638C41.2285 103.716 43.4543 108.526 44.2609 109.96H43.526C41.6284 109.96 39.9467 111.498 39.9467 113.396V117.262C39.9467 118.863 41.2353 120.204 42.5239 120.585V128H85.4769V120.585C87.1951 120.203 88.0541 118.862 88.0541 117.262V113.396C88.0537 111.498 86.6582 109.96 84.7605 109.96Z" fill="black"/>
</svg>
