<svg width="128" height="128" viewBox="0 0 128 128" fill="none" xmlns="http://www.w3.org/2000/svg">
<path d="M90.6102 49.8255C97.0154 49.8255 102.223 44.6333 102.223 38.2282C102.223 31.823 97.5222 27.4843 90.6416 25.0562C85.7737 23.3381 82.9023 20.4074 80.7585 16.7182C78.6147 13.0289 73.8899 7.30201 67.6617 7.30201C65.1567 7.30201 59.1579 7.30201 59.1579 7.30201V0C13.1982 17.1941 28.0732 79.0336 28.0732 79.0336H37.2518V85.047H34.5162C32.6185 85.047 30.8089 86.5856 30.8089 88.4832V88.9128C30.8089 90.3255 31.7977 91.5376 33.0167 92.0659C29.2497 98.5304 32.4072 104.855 33.3435 106.523H31.0795C29.1818 106.523 27.3722 108.062 27.3722 109.96V117.691C27.3722 119.589 29.0903 121.128 30.8085 121.128V128H87.5064V121.098C89.2246 120.886 90.5131 119.443 90.5131 117.691V109.96C90.5131 108.062 89.2456 106.523 87.3479 106.523H85.5138C86.4507 104.855 89.3375 98.5304 85.5697 92.0659C86.7887 91.5376 87.506 90.3255 87.506 88.9128V88.4832C87.506 86.5856 86.2385 85.047 84.3408 85.047H81.0631V79.0336H91.4285C84.3408 55.8389 62.936 43.3826 62.936 43.3826H80.1954C82.1029 47.2006 86.0568 49.8255 90.6102 49.8255Z" fill="black"/>
</svg>
