<svg width="128" height="128" viewBox="0 0 128 128" fill="none" xmlns="http://www.w3.org/2000/svg">
<path d="M96.2513 106.451H93.6973C94.8208 104.809 98.351 98.6833 93.384 92.553C87.6373 85.4592 76.204 64.2172 81.608 49.9933H82.029C83.9331 49.9933 85.3333 48.4495 85.3333 46.5455V46.1145C85.3333 44.2104 83.9331 42.6667 82.029 42.6667H81.5011C86.2061 38.1561 89.1401 31.813 89.1401 24.7811C89.1401 11.0951 78.0451 0 64.359 0C50.6729 0 39.5779 11.0951 39.5779 24.7811C39.5779 31.813 42.5119 38.1561 47.2169 42.6667H46.258C44.3539 42.6667 42.6667 44.2104 42.6667 46.1145V46.5455C42.6667 48.4495 44.3539 49.9933 46.258 49.9933H47.1109C52.5149 64.2172 41.0815 85.4592 35.3349 92.553C30.3683 98.6833 33.898 104.809 35.0216 106.451H32.0358C30.1317 106.451 28.4444 107.995 28.4444 109.899V117.657C28.4444 119.561 30.1317 121.104 32.0358 121.104H32.3232V128H96.1077V121.104C98.2626 121.104 99.5556 119.561 99.5556 117.657V109.899C99.5556 107.995 98.1553 106.451 96.2513 106.451Z" fill="black"/>
</svg>
