<svg width="128" height="128" viewBox="0 0 128 128" fill="none" xmlns="http://www.w3.org/2000/svg">
<path d="M86.4142 109.075L84.8688 111.404H87.6641H89.1334C90.126 111.404 90.9368 112.191 90.9368 113.351V117.228C90.9368 118.226 90.2109 119.037 89.2373 119.157L87.9208 119.319V120.646V126.5H40.0792V120.646V119.319L38.7627 119.157C37.7891 119.037 37.0632 118.226 37.0632 117.228V113.351C37.0632 112.354 37.9983 111.404 39.1536 111.404H40.6232H43.4186L41.8732 109.075C40.9814 107.73 38.8806 103.757 42.092 99.8224L41.0951 99.0086L42.0921 99.8223C44.1059 97.3551 46.8817 92.9754 49.1207 87.855C51.3554 82.7444 53.1202 76.7499 52.9631 71.0849L52.9227 69.6264H51.4637H49.9251C48.7698 69.6264 47.8347 68.6768 47.8347 67.6796V67.2487C47.8347 66.2515 48.7698 65.3018 49.9251 65.3018H51.9359H53.4359V63.8018V62.2619V61.471L52.7833 61.0242C47.588 57.467 44.3111 51.5215 44.3111 44.7582C44.3111 43.0161 44.8656 40.7253 45.8843 38.038C46.8933 35.3761 48.3137 32.4373 49.9459 29.4348C53.2097 23.4308 57.2618 17.2783 60.3919 12.7498L61.097 11.7298L60.2277 10.8454C59.2499 9.85063 58.6493 8.49409 58.6493 6.99416C58.6493 3.95992 61.1088 1.5 64.1439 1.5C67.1788 1.5 69.6375 3.95968 69.6372 6.99399V6.99416C69.6372 8.49438 69.0363 9.85086 68.0585 10.8452L67.1889 11.7296L67.8942 12.7499C69.3523 14.859 71.0087 17.3253 72.692 19.9677L64.2014 28.4575L64.2013 28.4576C62.2777 30.3812 62.2716 33.5221 64.1955 35.4495C64.1968 35.4508 64.1981 35.4521 64.1993 35.4534L64.5891 35.8483L64.5891 35.8484L64.5963 35.8556C66.5228 37.7808 69.6572 37.7811 71.5835 35.8548L71.5847 35.8536L78.1698 29.2536C79.6548 31.9929 80.9657 34.689 81.9534 37.1767C83.1615 40.2194 83.8323 42.8196 83.8323 44.7582C83.8323 51.3548 80.8235 57.146 75.643 60.721L74.9949 61.1682V61.9556V63.8018V65.3018H76.4949H78.3619C79.3545 65.3018 80.1653 66.0886 80.1653 67.2487V67.6796C80.1653 68.8396 79.3545 69.6264 78.3619 69.6264H76.8237H75.3647L75.3243 71.0849C75.1672 76.7497 76.9321 82.7442 79.1669 87.8549C81.4059 92.9753 84.1817 97.355 86.1953 99.8223L86.1954 99.8224C89.4071 103.757 87.3061 107.73 86.4142 109.075Z" fill="white" stroke="black" stroke-width="3"/>
</svg>
