<svg width="128" height="128" viewBox="0 0 128 128" fill="none" xmlns="http://www.w3.org/2000/svg">
<path d="M82.7484 109.224L81.4902 111.46H84.0556H84.7605C85.7471 111.46 86.5537 112.242 86.5541 113.396C86.5541 113.396 86.5541 113.396 86.5541 113.396V117.262C86.5541 117.797 86.4117 118.206 86.2022 118.491C86.0024 118.762 85.6818 119.003 85.1515 119.121L83.9769 119.382V120.585V126.5H44.0239V120.585V119.465L42.9497 119.147C42.1732 118.917 41.4467 118.076 41.4467 117.262V113.396C41.4467 112.405 42.3767 111.46 43.526 111.46H44.2609H46.8263L45.5682 109.224C44.8202 107.895 42.9853 103.814 45.7534 99.8179L44.5981 99.0176L45.7534 99.8179C47.458 97.3571 49.8025 92.9953 51.6918 87.9015C53.5793 82.8126 55.0596 76.8676 54.9271 71.2665L54.8925 69.802H53.4276H52.9753C51.8259 69.802 50.896 68.8571 50.896 67.8658V67.4362C50.896 66.367 51.763 65.5 52.8322 65.5V64V62.5C51.763 62.5 50.896 61.633 50.896 60.5638V60.1342C50.896 59.1429 51.8259 58.198 52.9753 58.198H54.9296H56.339L56.4267 56.7913C56.8712 49.66 55.8501 43.5797 54.2968 38.7468L54.2968 38.7467C53.7797 37.1382 53.165 35.8632 52.5255 34.8503L52.0841 34.151H51.2571H49.9685C48.8192 34.151 47.8893 33.2061 47.8893 32.2148V31.7852C47.8893 30.7939 48.8192 29.849 49.9685 29.849H50.3031H51.5801L51.7839 28.5885C52.583 23.647 56.3537 19.6632 60.9446 18.4581L62.0638 18.1643V17.0072V11.5973V10.0973H60.5638H56.9094V6.65436H60.5638H62.0638V5.15436V1.5H65.5067V5.15436V6.65436H67.0067H70.6611V10.0973H67.0067H65.5067V11.5973V16.9076V18.1153L66.6866 18.373C71.6714 19.462 75.541 23.5172 76.3595 28.5929L76.5572 29.8196L77.7993 29.8536C78.8446 29.8822 79.6808 30.7367 79.6808 31.7852V32.2148C79.6808 33.3689 78.8744 34.151 77.8876 34.151H77.0285H76.2018L75.7603 34.85C75.1206 35.8628 74.5059 37.1384 73.9889 38.7467L73.9888 38.7469C72.4356 43.5801 71.4145 49.66 71.8589 56.7913L71.9466 58.198H73.356H74.8809C75.8676 58.198 76.6741 58.9801 76.6741 60.1342V60.5638C76.6741 61.633 75.8071 62.5 74.7378 62.5V64V65.5C75.8071 65.5 76.6741 66.367 76.6741 67.4362V67.8658C76.6741 68.9746 75.8399 69.7993 74.8135 69.8016L73.3518 69.8049L73.3173 71.2662C73.1849 76.8699 74.6848 82.8168 76.5903 87.9055C78.498 93.0002 80.8602 97.3601 82.5627 99.8179L82.5628 99.818C85.3317 103.814 83.4965 107.895 82.7484 109.224Z" fill="white" stroke="black" stroke-width="3"/>
</svg>
