<svg width="128" height="128" viewBox="0 0 128 128" fill="none" xmlns="http://www.w3.org/2000/svg">
<path d="M92.4593 105.604L90.8538 107.951H93.6973H96.2513C97.2444 107.951 98.0556 108.738 98.0556 109.899V117.657C98.0556 118.27 97.8502 118.748 97.5521 119.062C97.2654 119.363 96.8081 119.604 96.1077 119.604H94.6077V121.104V126.5H33.8232V121.104V119.604H32.3232H32.0358C30.88 119.604 29.9444 118.654 29.9444 117.657V109.899C29.9444 108.901 30.88 107.951 32.0358 107.951H35.0216H37.8651L36.2596 105.604C35.7604 104.874 34.7283 103.144 34.3755 100.947C34.0318 98.8076 34.3201 96.1884 36.5004 93.4973L36.5004 93.4972C39.4848 89.8132 43.8595 82.5815 46.814 74.4597C49.7512 66.3855 51.4109 57.0879 48.5131 49.4605L48.1456 48.4933H47.1109H46.258C45.1022 48.4933 44.1667 47.5432 44.1667 46.5455V46.1145C44.1667 45.1168 45.1022 44.1667 46.258 44.1667H47.2169H50.9491L48.255 41.5839C43.832 37.3437 41.0779 31.3864 41.0779 24.7811C41.0779 11.9235 51.5013 1.5 64.359 1.5C77.2167 1.5 87.6401 11.9235 87.6401 24.7811C87.6401 31.3864 84.886 37.3437 80.463 41.5839L77.7689 44.1667H81.5011H82.029C83.0222 44.1667 83.8333 44.9539 83.8333 46.1145V46.5455C83.8333 47.706 83.0222 48.4933 82.029 48.4933H81.608H80.5732L80.2058 49.4605C77.3079 57.0879 78.9677 66.3855 81.9049 74.4597C84.8593 82.5815 89.234 89.8132 92.2184 93.4972L92.2185 93.4974C94.3989 96.1884 94.6873 98.8076 94.3436 100.947C93.9907 103.144 92.9585 104.874 92.4593 105.604Z" fill="white" stroke="black" stroke-width="3"/>
</svg>
