<svg width="128" height="128" viewBox="0 0 128 128" fill="none" xmlns="http://www.w3.org/2000/svg">
<path d="M86.377 109.117L84.8316 111.446H87.6269H89.0751C90.0633 111.446 90.8709 112.229 90.8713 113.384C90.8713 113.384 90.8713 113.384 90.8713 113.385V117.253C90.8713 118.247 90.1484 119.054 89.1788 119.174L87.8623 119.336V120.662V126.5H40.1386V120.662V119.336L38.822 119.174C37.8524 119.054 37.1295 118.247 37.1295 117.253V113.384C37.1295 112.391 38.0607 111.445 39.2116 111.445H40.6954H43.4908L41.9454 109.116C41.0558 107.775 38.9611 103.812 42.1635 99.8895C44.1733 97.4275 46.942 93.0574 49.175 87.9486C51.4037 82.8495 53.1633 76.8684 53.0059 71.216L52.9653 69.7578H51.5065H49.9581C48.8073 69.7578 47.8761 68.8117 47.8761 67.8189V67.389C47.8761 66.3183 48.7443 65.4501 49.815 65.4501V63.9501V62.4501C48.7443 62.4501 47.8761 61.5819 47.8761 60.5112V60.0814C47.8761 59.0886 48.8073 58.1425 49.9581 58.1425H51.9466H53.311L53.4399 56.7842C54.3438 47.263 52.9862 37.8398 50.7679 32.5624C49.9041 30.5075 48.8485 28.9294 47.8181 27.7259L47.3691 27.2015H46.6787H45.6595C44.5087 27.2015 43.5774 26.2553 43.5774 25.2626V24.8327C43.5774 23.8399 44.5087 22.8938 45.6595 22.8938H50.302H51.5743L51.7819 21.6386C52.4745 17.4509 55.2461 13.9612 59.006 12.2687L60.6367 11.5346L59.6301 10.0565C59.0321 9.17847 58.6828 8.12128 58.6828 6.97752C58.6828 3.95235 61.1349 1.5 64.1612 1.5C67.1871 1.5 69.6387 3.95205 69.6387 6.97795C69.6387 8.12525 69.2865 9.18589 68.6845 10.0661L67.6751 11.542L69.304 12.2794C73.052 13.9761 75.8134 17.4605 76.5048 21.6391L76.7125 22.8942H77.9847H82.1973C83.1856 22.8942 83.9931 23.6775 83.9931 24.8331V25.263C83.9931 26.4186 83.1856 27.2019 82.1973 27.2019H81.608H80.9176L80.4685 27.7264C79.4382 28.9298 78.3825 30.5079 77.5188 32.5628C75.3005 37.8402 73.9428 47.2635 74.8467 56.7847L74.9757 58.1429H76.34H78.3286C79.3168 58.1429 80.1243 58.9262 80.1243 60.0818V60.5117C80.1243 61.5824 79.2561 62.4506 78.1854 62.4506V63.9506V65.4506C79.2561 65.4506 80.1243 66.3188 80.1243 67.3895V67.8193C80.1243 68.975 79.3168 69.7582 78.3286 69.7582H76.8159H75.357L75.3165 71.2165C75.1593 76.8689 76.9191 82.85 79.1479 87.9491C81.3809 93.0579 84.1495 97.4278 86.1587 99.8898L86.1589 99.8899C89.3616 103.813 87.2666 107.776 86.377 109.117Z" fill="white" stroke="black" stroke-width="3"/>
</svg>
