<svg width="128" height="128" viewBox="0 0 128 128" fill="none" xmlns="http://www.w3.org/2000/svg">
<path d="M89.0751 109.946H87.6269C88.5786 108.511 91.2034 103.697 87.3208 98.9413C83.4951 94.2537 76.5189 81.942 76.8159 71.2582H78.3286C80.2277 71.2582 81.6243 69.7185 81.6243 67.8193V67.3895C81.6243 65.4903 80.0846 63.9506 78.1854 63.9506C80.0846 63.9506 81.6243 62.4108 81.6243 60.5117V60.0818C81.6243 58.1827 80.2277 56.6429 78.3286 56.6429H76.34C75.4528 47.2973 76.8034 38.1356 78.9016 33.1441C79.7011 31.2419 80.6717 29.7955 81.608 28.7019H82.1973C84.0965 28.7019 85.4931 27.1621 85.4931 25.263V24.8331C85.4931 22.934 84.0965 21.3942 82.1973 21.3942H77.9847C77.2096 16.7105 74.1168 12.8116 69.9226 10.9129C70.6891 9.79226 71.1387 8.43819 71.1387 6.97795C71.1387 3.12381 68.0157 0 64.1612 0C60.3066 0 57.1828 3.12381 57.1828 6.97752C57.1828 8.4326 57.6286 9.78237 58.3903 10.9009C54.1828 12.7948 51.0783 16.6997 50.302 21.3938H45.6595C43.7604 21.3938 42.0774 22.9336 42.0774 24.8327V25.2626C42.0774 27.1617 43.7604 28.7015 45.6595 28.7015H46.6787C47.6149 29.795 48.5856 31.2415 49.3851 33.1436C51.4833 38.1352 52.8339 47.2969 51.9466 56.6425H49.9581C48.059 56.6425 46.3761 58.1823 46.3761 60.0814V60.5112C46.3761 62.4104 47.9158 63.9501 49.815 63.9501C47.9158 63.9501 46.3761 65.4899 46.3761 67.389V67.8189C46.3761 69.718 48.059 71.2578 49.9581 71.2578H51.5065C51.8039 81.9416 44.8281 94.2533 41.0015 98.9409C37.1194 103.696 39.7437 108.511 40.6954 109.945H39.2116C37.3124 109.945 35.6295 111.485 35.6295 113.384V117.253C35.6295 119.006 36.9191 120.45 38.6386 120.662V128H89.3623V120.662C91.0817 120.45 92.3713 119.006 92.3713 117.253V113.384C92.3709 111.486 90.9742 109.946 89.0751 109.946Z" fill="white"/>
</svg>
