<svg width="128" height="128" viewBox="0 0 128 128" fill="none" xmlns="http://www.w3.org/2000/svg">
<path d="M93.175 105.896C94.6599 103.08 97.4544 96.1121 92.4594 89.085C86.1242 80.1718 77.2905 53.6913 83.1614 35.651H88.9128V0H82.0403V7.30201H75.1678V0H67.4362V7.30201H60.5638V0H53.2618V7.30201H46.3893V0H39.0873V35.651H45.1252C50.996 53.6913 42.127 80.1718 35.7915 89.085C30.7965 96.1117 33.4836 103.133 34.9685 105.949C33.2229 106.113 31.7852 107.527 31.7852 109.315V117.047C31.7852 118.945 33.4669 120.698 35.3645 120.698H35.651V128H92.349V120.698H92.9216C94.8192 120.698 96.2148 118.945 96.2148 117.047V109.315C96.2148 107.528 94.9202 106.06 93.175 105.896Z" fill="white"/>
</svg>
