<svg width="128" height="128" viewBox="0 0 128 128" fill="none" xmlns="http://www.w3.org/2000/svg">
<path d="M91.8481 105.196L90.8024 107.179L93.0346 107.389C93.9741 107.477 94.7148 108.266 94.7148 109.315V117.047C94.7148 118.323 93.7978 119.198 92.9216 119.198H92.349H90.849V120.698V126.5H37.151V120.698V119.198H35.651H35.3645C34.3331 119.198 33.2852 118.155 33.2852 117.047V109.315C33.2852 108.381 34.0523 107.542 35.1085 107.443L37.3414 107.233L36.2953 105.25C34.8985 102.601 32.5196 96.2766 37.0141 89.9541L35.7915 89.085L37.0141 89.954C40.3345 85.2827 44.1965 76.2292 46.4983 66.1238C48.7999 56.0188 49.6079 44.5786 46.5515 35.1868L46.2145 34.151H45.1252H40.5873V1.5H44.8893V7.30201V8.80201H46.3893H53.2618H54.7618V7.30201V1.5H59.0638V7.30201V8.80201H60.5638H67.4362H68.9362V7.30201V1.5H73.6678V7.30201V8.80201H75.1678H82.0403H83.5403V7.30201V1.5H87.4128V34.151H83.1614H82.0721L81.735 35.1868C78.6789 44.5779 79.4776 56.0175 81.7703 66.1226C84.0631 76.2277 87.9161 85.282 91.2368 89.954L92.3724 89.1469L91.2368 89.954C95.7218 96.2636 93.2575 102.523 91.8481 105.196Z" fill="white" stroke="black" stroke-width="3"/>
</svg>
